<svg height="512" viewBox="0 0 128 128" width="512" xmlns="http://www.w3.org/2000/svg"><g><path d="m50.5 93.107 42.607-42.607a13.787 13.787 0 0 1 13.684-3.3 15.241 15.241 0 1 0 3.879-29.87 15.189 15.189 0 0 0 -5.033-11.711 15.247 15.247 0 0 0 -24.837 15.59 13.787 13.787 0 0 1 -3.3 13.684l-42.607 42.612a13.787 13.787 0 0 1 -13.684 3.3 15.241 15.241 0 1 0 -3.879 29.865 15.186 15.186 0 0 0 5.033 11.711 15.246 15.246 0 0 0 24.837-15.59 13.787 13.787 0 0 1 3.3-13.684z" fill="#e1ebf0"/><path d="m111.051 39.343a6.9 6.9 0 0 1 -1.907-.265 1.75 1.75 0 0 1 .972-3.362 3.33 3.33 0 0 0 3.373-.955 3.384 3.384 0 0 0 .013-4.393 1.75 1.75 0 0 1 2.6-2.344 6.917 6.917 0 0 1 -.028 9.1 6.7 6.7 0 0 1 -5.023 2.219z" fill="#b4d2d7"/></g></svg>