<?xml version="1.0" encoding="iso-8859-1"?>
<!-- Generator: Adobe Illustrator 19.0.0, SVG Export Plug-In . SVG Version: 6.00 Build 0)  -->
<svg version="1.1" id="Layer_1" xmlns="http://www.w3.org/2000/svg" xmlns:xlink="http://www.w3.org/1999/xlink" x="0px" y="0px"
	 viewBox="0 0 503.466 503.466" style="enable-background:new 0 0 503.466 503.466;" xml:space="preserve">
<g transform="translate(5 1)">
	<g>
		<path style="fill:#F2EDDA;" d="M308.173,301.933c-16.213,5.973-35.84,8.533-60.587,8.533c-24.747,0-44.373-2.56-60.587-8.533
			c-34.987-12.8-50.347-41.813-50.347-93.867c0-46.08,8.533-93.013,25.6-128c6.827-13.653,14.507-24.747,23.893-34.133
			c16.213-16.213,35.84-25.6,60.587-25.6s44.373,9.387,60.587,25.6c9.387,9.387,17.92,20.48,23.893,34.133
			c17.92,34.987,26.453,81.067,26.453,128C358.52,260.12,342.306,289.133,308.173,301.933"/>
		<path style="fill:#F2EDDA;" d="M247.586,447v17.067c0,18.773,15.36,34.133,34.133,34.133h8.533c18.773,0,34.133-10.24,34.133-25.6
			c0-3.413-0.853-5.973-0.853-8.533c-3.413-12.8-17.067-17.067-33.28-17.067l17.067-102.4c0,0,4.267-22.187,16.213-41.813
			c-5.12-0.853-10.24-0.853-15.36-0.853c-16.213,5.973-35.84,8.533-60.587,8.533L247.586,447L247.586,447z M247.586,464.066
			c0,18.773-15.36,34.133-34.133,34.133h-8.533c-18.773,0-34.133-10.24-34.133-25.6c0-3.413,0-5.973,0.853-8.533
			c3.413-12.8,17.067-17.067,33.28-17.067h42.667V464.066z M247.586,310.466V447H204.92l-17.067-102.4
			c0,0-4.267-24.747-16.213-41.813c5.12-0.853,10.24-0.853,15.36-0.853C203.213,307.907,222.84,310.466,247.586,310.466z"/>
		<path style="fill:#F2EDDA;" d="M162.253,464.066C153.72,447,119.586,447,119.586,447s-17.067-25.6-17.067-76.8
			c0-10.24,1.707-19.627,4.267-26.453c11.093-28.16,38.4-33.28,38.4-33.28s10.24-5.12,26.453-7.68
			c11.947,17.067,16.213,41.813,16.213,41.813L204.92,447c-16.213,0-29.013,5.12-33.28,17.067h-0.853H162.253z M119.586,447
			c0,0,34.133,0,42.667,17.067c0,18.773-15.36,34.133-34.133,34.133h-8.533c-18.773,0-34.133-10.24-34.133-25.6
			C85.453,453.826,100.813,447,119.586,447z"/>
	</g>
	<path style="fill:#FFD0A1;" d="M145.186,310.466c0,0-26.453,5.12-38.4,33.28h-0.853c-13.653-13.653-20.48-23.893-20.48-23.893
		s-34.133-51.2-17.067-93.867c8.533,51.2,42.667,68.267,42.667,68.267S128.12,307.053,145.186,310.466"/>
	<path style="fill:#F2EDDA;" d="M375.586,447c18.773,0,34.133,6.827,34.133,25.6c0,15.36-15.36,25.6-34.133,25.6h-8.533
		c-18.773,0-34.133-15.36-34.133-34.133h-8.533h-0.853c-3.413-12.8-17.067-17.067-33.28-17.067l17.067-102.4
		c0,0,4.267-22.187,16.213-41.813c16.213,2.56,26.453,7.68,26.453,7.68S392.653,319,392.653,370.2S375.586,447,375.586,447
		L375.586,447L375.586,447z"/>
	<g>
		<path style="fill:#FFD0A1;" d="M187,45.933c-9.387,9.387-17.067,21.333-23.893,34.133l0,0L138.36,61.293L137.506,63l-34.133,51.2
			c-8.533,11.947-15.36,25.6-34.133,25.6s-34.133-15.36-34.133-34.133c0-9.387,3.413-23.04,8.533-34.133
			C60.706,37.4,103.373,3.266,128.973,3.266C145.186,3.266,187,45.933,187,45.933L187,45.933z"/>
		<path style="fill:#FFD0A1;" d="M332.92,80.066c-6.827-13.653-14.507-24.747-23.893-34.133l0,0c0,0,41.813-42.667,58.88-42.667
			c25.6,0,68.267,34.133,85.333,68.267c5.12,11.093,8.533,24.747,8.533,34.133c0,18.773-15.36,34.133-34.133,34.133
			c-18.773,0-25.6-12.8-34.133-25.6L359.373,63l-0.853-1.707L332.92,80.066L332.92,80.066z"/>
	</g>
	<path style="fill:#AE938D;" d="M247.586,191c14.507,0,25.6,7.68,25.6,17.067s-11.093,17.067-25.6,17.067
		c-14.507,0-25.6-7.68-25.6-17.067S233.08,191,247.586,191"/>
</g>
<path style="fill:#51565F;" d="M380.586,503.466h-8.533c-11.947,0-20.48-9.387-20.48-10.24c-1.707-1.707-0.853-4.267,0.853-5.973
	c1.707-1.707,4.267-0.853,5.973,0.853l0,0c0,0,5.973,6.827,13.653,6.827h8.533c14.507,0,29.867-7.68,29.867-21.333
	c0-14.507-10.24-21.333-29.867-21.333c-1.707,0-3.413-0.853-3.413-2.56c-0.853-1.707-0.853-3.413,0-4.267
	c0,0,16.213-25.6,16.213-74.24c0-46.933-39.253-55.467-39.253-55.467c-2.56-0.853-3.413-2.56-3.413-5.12
	c0.853-2.56,2.56-3.413,5.12-3.413c0.853,0,46.08,10.24,46.08,64c0,38.4-9.387,62.293-14.507,72.533
	c19.627,1.707,31.573,12.8,31.573,29.867C418.986,490.666,402.773,503.466,380.586,503.466z M295.253,503.466h-8.533
	c-14.507,0-28.16-8.533-34.133-20.48c-5.973,11.947-19.627,20.48-34.133,20.48h-8.533c-22.187,0-38.4-12.8-38.4-29.867
	c0-17.92,11.947-28.16,33.28-29.867l-16.213-97.28c0-2.56,0.853-4.267,3.413-5.12c2.56,0,4.267,0.853,5.12,3.413l16.213,98.987h5.12
	c2.56,0,4.267,1.707,4.267,4.267c0,2.56-1.707,4.267-4.267,4.267h-8.533c-19.627,0-29.867,6.827-29.867,21.333
	c0,13.653,15.36,21.333,29.867,21.333h8.533c16.213,0,29.867-13.653,29.867-29.867V345.6c0-2.56,1.707-4.267,4.267-4.267
	c2.56,0,4.267,1.707,4.267,4.267v119.467c0,16.213,13.653,29.867,29.867,29.867h8.533c14.507,0,29.867-7.68,29.867-21.333
	c0-14.507-10.24-21.333-29.867-21.333h-8.533c-2.56,0-4.267-1.707-4.267-4.267c0-2.56,1.707-4.267,4.267-4.267h5.12l16.213-98.987
	c0-2.56,2.56-4.267,5.12-3.413c2.56,0,4.267,2.56,3.413,5.12l-16.213,97.28c21.333,1.707,33.28,11.947,33.28,29.867
	C333.653,490.666,317.44,503.466,295.253,503.466z M133.12,503.466h-8.533c-22.187,0-38.4-12.8-38.4-29.867
	c0-17.067,11.093-27.307,31.573-29.867c-5.12-11.093-14.507-34.987-14.507-72.533c0-53.76,45.227-64,46.08-64
	c2.56-0.853,4.267,0.853,5.12,3.413s-0.853,4.267-3.413,5.12c-1.707,0-39.253,8.533-39.253,55.467
	c0,49.493,16.213,74.24,16.213,74.24c0.853,1.707,0.853,3.413,0,4.267c-0.853,0.853-2.56,2.56-3.413,2.56
	c-19.627,0-29.867,6.827-29.867,21.333c0,13.653,15.36,21.333,29.867,21.333h8.533c7.68,0,13.653-6.827,13.653-6.827
	c1.707-1.707,4.267-2.56,5.973-0.853c1.707,1.707,2.56,4.267,0.853,5.973C153.6,494.08,145.066,503.466,133.12,503.466z
	 M90.453,324.266c-1.707,0-2.56-0.853-3.413-1.707c-1.707-2.56-34.987-53.76-17.067-98.133c0.853-1.707,2.56-2.56,4.267-2.56
	s3.413,1.707,3.413,3.413c7.68,48.64,40.107,64.853,40.107,64.853c1.707,0.853,2.56,3.413,1.707,5.973
	c-0.853,1.707-3.413,2.56-5.973,1.707c-1.707-0.853-28.16-14.507-40.96-53.76c-4.267,35.84,20.48,73.387,20.48,73.387
	c1.707,1.707,0.853,4.267-0.853,5.973C92.16,324.266,91.306,324.266,90.453,324.266z M252.586,315.733
	c-82.773,0-115.2-29.867-115.2-106.667c0-63.147,15.36-126.293,48.64-162.133c-16.213-16.213-42.667-38.4-52.907-38.4
	c-23.893,0-64.853,33.28-81.92,65.707c-5.12,9.387-7.68,23.04-7.68,32.427c0,16.213,13.653,29.867,29.867,29.867
	c14.507,0,20.48-9.387,27.307-19.627c0.853-1.707,1.707-2.56,2.56-4.267l34.133-51.2c1.707-1.707,4.267-2.56,5.973-0.853
	c1.707,1.707,2.56,4.267,0.853,5.973l-34.133,51.2c-0.853,1.707-1.707,2.56-2.56,4.267c-7.68,11.093-16.213,23.04-34.987,23.04
	c-21.333,0-38.4-17.067-38.4-38.4c0-11.093,3.413-25.6,9.387-35.84C61.44,34.986,105.813,0,132.267,0
	c16.213,0,48.64,30.72,58.88,40.96c16.213-15.36,36.693-23.893,60.587-23.893S296.107,25.6,312.32,40.96
	C322.56,30.72,354.987,0,371.2,0c27.307,0,71.68,34.987,88.747,70.827c5.12,11.093,9.387,25.6,9.387,35.84
	c0,21.333-17.067,38.4-38.4,38.4c-19.627,0-27.307-11.947-35.84-23.893L358.4,66.56c-1.707-1.707-0.853-4.267,0.853-5.973
	c1.707-1.707,4.267-0.853,5.973,0.853l36.693,54.613c7.68,11.093,13.653,20.48,28.16,20.48c16.213,0,29.867-13.653,29.867-29.867
	c0-9.387-3.413-23.04-7.68-32.427c-16.213-32.427-57.173-65.707-81.92-65.707c-10.24,0-36.693,22.187-52.907,38.4
	c33.28,35.84,48.64,98.987,48.64,162.133C367.786,285.866,335.36,315.733,252.586,315.733z M252.586,25.6
	c-73.387,0-106.667,92.16-106.667,183.467c0,71.68,29.013,98.133,106.667,98.133s106.667-26.453,106.667-98.133
	C359.253,117.76,325.973,25.6,252.586,25.6z M286.72,264.533c-13.653,0-27.307-9.387-34.133-22.187
	c-6.827,12.8-20.48,22.187-34.133,22.187c-0.853,0-15.36,0-20.48-11.093c-0.853-1.707,0-4.267,1.707-5.973
	c1.707-0.853,4.267,0,5.973,1.707c3.413,5.973,12.8,5.973,13.653,5.973c13.653,0,27.307-12.8,29.867-25.6
	c-14.507-1.707-25.6-10.24-25.6-21.333c0-11.947,12.8-21.333,29.867-21.333s29.867,9.387,29.867,21.333
	c0,11.093-11.093,19.627-25.6,21.333c2.56,13.653,16.213,25.6,29.867,25.6c0,0,10.24,0,13.653-5.973
	c0.853-1.707,3.413-2.56,5.973-1.707c1.707,0.853,2.56,3.413,1.707,5.973C302.08,264.533,287.573,264.533,286.72,264.533z
	 M252.586,196.266c-11.947,0-21.333,5.973-21.333,12.8c0,6.827,9.387,12.8,21.333,12.8c11.947,0,21.333-5.973,21.333-12.8
	C273.92,202.24,264.533,196.266,252.586,196.266z M290.986,145.066c-5.12,0-8.533-3.413-8.533-8.533s3.413-8.533,8.533-8.533
	c5.12,0,8.533,3.413,8.533,8.533S296.106,145.066,290.986,145.066z M214.186,145.066c-5.12,0-8.533-3.413-8.533-8.533
	s3.413-8.533,8.533-8.533s8.533,3.413,8.533,8.533S219.306,145.066,214.186,145.066z"/>
<g>
</g>
<g>
</g>
<g>
</g>
<g>
</g>
<g>
</g>
<g>
</g>
<g>
</g>
<g>
</g>
<g>
</g>
<g>
</g>
<g>
</g>
<g>
</g>
<g>
</g>
<g>
</g>
<g>
</g>
</svg>
