<svg id="Capa_1" enable-background="new 0 0 512.01 512.01" height="512" viewBox="0 0 512.01 512.01" width="512" xmlns="http://www.w3.org/2000/svg"><g><g><path d="m404.071 182.9c-3.179 0-6.372-1.011-9.067-3.047l-91.567-69.492c-3.867-2.944-6.079-7.559-5.933-12.407.161-4.849 2.637-9.331 6.68-12.026l123.501-83.399c3.867-2.578 8.76-3.237 13.184-1.714s7.896 5.024 9.375 9.463l3.164 9.507c18.472 55.43 3.179 118.422-38.936 158.925-2.886 2.783-6.636 4.19-10.401 4.19z" fill="#463f3f"/></g><g><path d="m111.703 186.401c-3.589 0-7.163-1.289-9.99-3.809-45.439-40.562-62.358-105.077-43.096-162.821l3.149-9.492c1.479-4.438 4.951-7.939 9.375-9.463 4.395-1.538 9.272-.864 13.184 1.714l131.938 89.022c4.131 2.754 6.621 7.354 6.68 12.319.059 4.951-2.344 9.609-6.401 12.451l-96.24 67.368c-2.593 1.817-5.596 2.711-8.599 2.711z" fill="#5b5555"/></g><g><path d="m84.355 38.609c-9.888 39.976 1.025 83.178 28.945 113.368l68.057-47.651z" fill="#cc7029"/></g><g><path d="m338.358 99.198 64.014 48.589c25.063-29.795 34.585-71.283 25.269-109.164z" fill="#994a0f"/></g><path d="m256.005 331.01h-73.488c6.951 34.232 37.203 60 73.488 60s66.537-25.768 73.488-60z" fill="#e6455a"/><path d="m329.492 331.01h-73.488v60c36.285 0 66.538-25.769 73.488-60z" fill="#b32437"/><path d="m331.005 61.01c-26.689 0-52.368 10.225-75 29.707-22.632-19.482-48.311-29.707-75-29.707-82.705 0-150 100.928-150 225 0 113.657 56.499 212.075 131.426 225.727 5.859 1.143 11.66-1.377 15.015-6.196 3.354-4.849 3.574-11.191.557-16.245-4.512-7.544-26.997-50.063-26.997-98.286 0-52.661 27.378-96.519 27.642-96.929l15.396-24.141h61.963 61.963l15.381 24.111c.278.439 27.656 44.297 27.656 96.958 0 48.223-22.485 90.742-26.997 98.286-3.018 5.054-2.798 11.396.557 16.245 3.474 5.004 9.531 7.256 15.015 6.196 74.927-13.652 131.426-112.07 131.426-225.727-.003-124.071-67.298-224.999-150.003-224.999z" fill="#766e6e"/><path d="m333.349 294.052c.278.439 27.656 44.297 27.656 96.958 0 48.223-22.485 90.742-26.997 98.286-3.018 5.054-2.798 11.396.557 16.245 3.474 5.004 9.531 7.256 15.015 6.196 74.927-13.652 131.426-112.07 131.426-225.727 0-124.072-67.295-225-150-225-26.689 0-52.368 10.225-75 29.707v179.224h61.963z" fill="#5b5555"/><path d="m391.005 196.01c0-44.485-40.049-78.252-74.282-73.081-15.908 2.607-28.564 6.768-60.718 38.687-31.992-31.729-44.722-35.962-60.791-38.687-33.721-5.325-74.209 28.504-74.209 73.081 0 28.066 15.425 53.086 39.17 65.947-5.112 10.869-9.17 23.877-9.17 39.053 0 33.091 26.909 60 60 60 17.549 0 33.823-7.676 45-20.317 11.177 12.642 27.451 20.317 45 20.317 33.091 0 60-26.909 60-60 0-15.176-4.058-28.184-9.17-39.053 23.745-12.861 39.17-37.881 39.17-65.947z" fill="#fff5f5"/><path d="m361.005 301.01c0-15.176-4.058-28.184-9.17-39.053 23.745-12.861 39.17-37.881 39.17-65.947 0-44.485-40.049-78.252-74.282-73.081-15.908 2.607-28.564 6.768-60.718 38.687v179.077c11.177 12.642 27.451 20.317 45 20.317 33.091 0 60-26.909 60-60z" fill="#efe2dd"/><circle cx="196.005" cy="196.01" fill="#5b5555" r="15"/><circle cx="316.005" cy="196.01" fill="#463f3f" r="15"/><g><path d="m263.505 256.03h-7.5-7.5c-23.851-.353-37.5 5.741-37.5 29.98 0 24.814 20.186 45 45 45s45-20.186 45-45c0-24.397-13.652-30.127-37.5-29.98z" fill="#5b5555"/><path d="m301.005 286.01c0-24.397-13.652-30.126-37.5-29.98h-7.5v74.98c24.814 0 45-20.186 45-45z" fill="#463f3f"/></g></g></svg>