<svg id="Capa_1" enable-background="new 0 0 512.047 512.047" height="512" viewBox="0 0 512.047 512.047" width="512" xmlns="http://www.w3.org/2000/svg"><g><path d="m256.024 406.052h-73.488c6.951 34.232 37.203 60 73.488 60s66.537-25.768 73.488-60z" fill="#e6455a"/><path d="m329.511 406.052h-73.488v60c36.285 0 66.538-25.769 73.488-60z" fill="#b32437"/><path d="m91.024 211.052c0 42.891 16.67 83.569 46.934 114.536 8.423 8.628 13.066 19.79 13.066 31.436v10.269l94.072-41.748 9.586-243.483-27.924-33.256c-77.047 13.87-135.734 81.265-135.734 162.246z" fill="#766e6e"/><path d="m285.289 48.806-28.387 25.844 40.049 260.403 64.065 33.808h.007v-11.836c0-11.646 4.644-22.808 13.052-31.421 30.278-30.981 46.948-71.66 46.948-114.551.001-80.982-58.686-148.377-135.734-162.247z" fill="#5b5555"/><path d="m361.024 369.052c-.37 30.15-14.55 58.09-45.82 65.36-22.4 5.2-44.88-2.53-59.18-18.68-14.28 16.12-36.69 23.85-59.17 18.69-32.08-7.46-46.06-36.37-45.83-67.37.21-28.2 12.05-57.97 35.29-78.25 12.27-10.73 27.23-28.69 28.78-53.26l11.66-186.74c9.52-1.71 19.27-2.75 29.27-2.75s19.75 1.04 29.27 2.75l11.66 186.73c1.55 24.59 16.52 42.54 28.81 53.27 23.24 20.31 35.62 51.26 35.26 80.25z" fill="#fff5f5"/><path d="m361.024 369.052c-.37 30.15-14.55 58.09-45.82 65.36-22.4 5.2-44.88-2.53-59.18-18.68v-369.68c10 0 19.75 1.04 29.27 2.75l11.66 186.73c1.55 24.59 16.52 42.54 28.81 53.27 23.24 20.31 35.62 51.26 35.26 80.25z" fill="#efe2dd"/><g><path d="m263.524 331.072h-7.5-7.5c-23.851-.353-37.5 5.741-37.5 29.98 0 24.814 20.186 45 45 45s45-20.186 45-45c0-24.397-13.653-30.127-37.5-29.98z" fill="#463f3f"/><path d="m301.024 361.052c0-24.397-13.652-30.126-37.5-29.98h-7.5v74.98c24.814 0 45-20.186 45-45z" fill="#352c2c"/></g><circle cx="166.024" cy="211.052" fill="#463f3f" r="15"/><circle cx="346.024" cy="211.052" fill="#352c2c" r="15"/><g><path d="m19.92 210.715-16.263-41.895s0 0 0-.015c-5.493-15.044-4.775-31.333 2.007-45.879 6.753-14.502 19.779-25.518 34.838-31.011l122.461-44.575c1.216-.439 2.476-.732 3.765-.85 10.107-.205 17.007 3.325 20.757 9.331 3.765 5.903 4.204 13.081 1.157 19.585-30.249 64.878-83.086 116.03-148.755 143.979-7.804 3.355-17.016-.524-19.967-8.67z" fill="#5b5555"/></g><g><path d="m473.161 219.387c-65.669-27.949-119.506-79.102-149.77-143.994-3.032-6.489-2.593-13.667 1.23-19.673 4.775-7.544 14.136-11.719 22.383-8.774l125.497 44.956c15.103 5.508 27.129 16.523 33.882 31.04 6.782 14.531 7.5 30.82 2.007 45.879l-15.264 41.895c-2.955 8.13-12.14 12.033-19.965 8.671z" fill="#463f3f"/></g></g></svg>