<svg id="Capa_1" enable-background="new 0 0 512.014 512.014" height="512" viewBox="0 0 512.014 512.014" width="512" xmlns="http://www.w3.org/2000/svg"><g><g><path d="m93.688 163.348c-3.662 0-7.31-1.348-10.151-3.955-55.445-50.918-53.116-115.038-52.237-138.797l.146-5.156c0-8.291 6.709-15 15-15l4.922-.146c25.679-.908 104.458-2.882 156.87 77.67 2.212 3.398 2.959 7.559 2.065 11.514-.908 3.94-3.369 7.368-6.826 9.478l-101.982 62.197c-2.416 1.478-5.112 2.195-7.807 2.195z" fill="#ff9100"/></g><g><path d="m414.723 166.556c-3.809 0-7.603-1.45-10.518-4.307l-84.902-83.511c-5.61-5.522-6.006-15.443-.894-21.42 51.504-60.41 119.795-57.92 142.236-57.026l4.922.146c8.291 0 15 6.709 15 15l.146 5.156c.908 24.58 3.311 90.854-56.177 142.299-2.826 2.448-6.327 3.663-9.813 3.663z" fill="#ff641a"/></g><path d="m256.007.014c-147.759 0-256 114.555-256 271 0 34.629 11.723 71.616 32.86 109.966 3.018 5.493 9.097 8.511 15.41 7.573 6.211-.952 11.177-5.669 12.437-11.836l1.172-5.786c9.615 16.721 21.553 33.889 35.543 51.403l158.578-.009 158.595-.011c13.984-17.507 25.915-34.669 35.526-51.383l1.172 5.786c1.26 6.167 6.226 10.884 12.437 11.836 6.27.967 12.363-2.08 15.41-7.573 21.138-38.35 32.86-75.337 32.86-109.966 0-156.445-108.241-271-256-271z" fill="#ffb64c"/><path d="m450.128 370.931 1.172 5.786c1.26 6.167 6.226 10.884 12.437 11.836 6.27.967 12.363-2.08 15.41-7.573 21.138-38.35 32.86-75.337 32.86-109.966 0-156.445-108.241-271-256-271v422.311l158.595-.011c13.984-17.506 25.915-34.669 35.526-51.383z" fill="#ff9100"/><path d="m438.527 295.668c-10.342-30.513-26.968-58.345-48.311-80.977.527-3.867.791-7.559.791-11.177 0-45.498-33.647-82.5-75-82.5-23.73 0-45.952 12.583-60 33.442-14.048-20.859-36.255-33.442-60-33.442-41.353 0-75 37.002-75 82.5 0 3.618.264 7.31.791 11.177-21.343 22.632-37.969 50.464-48.311 80.977-1.802 5.332-.469 11.221 3.442 15.264s9.771 5.522 15.146 3.896l7.998-2.432c-5.977 19.219-9.067 39.478-9.067 59.868 0 17.243 2.357 33.99 6.422 50.07 12.889 16.135 27.501 32.558 44.028 49.261 4.497 4.556 11.382 5.713 17.124 2.988 5.757-2.754 9.155-8.848 8.452-15.19l-.981-8.76c15.22 12.51 69.624 49.765 80.874 58.319 2.681 2.036 5.889 3.062 9.082 3.062s6.401-1.025 9.082-3.062c11.25-8.555 65.654-45.81 80.874-58.319l-.981 8.76c-.703 6.343 2.695 12.437 8.452 15.19 5.771 2.739 12.627 1.567 17.124-2.988 16.534-16.71 31.154-33.14 44.044-49.281 4.146-16.1 6.405-32.913 6.405-50.05 0-20.391-3.091-40.649-9.067-59.868l7.998 2.432c5.347 1.626 11.235.146 15.146-3.896s5.245-9.932 3.443-15.264z" fill="#ffd396"/><path d="m345.963 450.634-.981 8.76c-.703 6.343 2.695 12.437 8.452 15.19 5.771 2.739 12.627 1.567 17.124-2.988 16.534-16.71 31.154-33.14 44.044-49.281 4.146-16.1 6.405-32.913 6.405-50.05 0-20.391-3.091-40.649-9.067-59.868l7.998 2.432c5.347 1.626 11.235.146 15.146-3.896s5.244-9.932 3.442-15.264c-10.342-30.513-26.968-58.345-48.311-80.977.527-3.867.791-7.559.791-11.177 0-45.498-33.647-82.5-75-82.5-23.73 0-45.952 12.583-60 33.442v357.558c3.193 0 6.401-1.025 9.082-3.062 11.251-8.555 65.656-45.81 80.875-58.319z" fill="#ffb64c"/><circle cx="196.007" cy="196.014" fill="#5b5555" r="15"/><circle cx="316.007" cy="196.014" fill="#463f3f" r="15"/><g><path d="m327.682 280.609c-2.109-8.013-10.298-12.715-18.325-10.708-17.739 4.688-32.227-6.27-36.68-18.955-2.45-7.009-9.587-10.723-16.631-9.532-.013-.002-.026.002-.038 0-7.068-1.249-14.214 2.496-16.67 9.532-4.438 12.686-18.867 23.73-36.68 18.955-7.969-2.007-16.23 2.695-18.325 10.708s2.695 16.216 10.708 18.325c23.309 6.083 46.41-1.679 60.967-18.214l.002-.002c14.551 16.525 37.639 24.304 60.965 18.215 8.012-2.108 12.802-10.311 10.707-18.324z" fill="#5b5555"/><path d="m316.974 298.934c8.013-2.109 12.803-10.313 10.708-18.325-2.109-8.013-10.298-12.715-18.325-10.708-17.739 4.688-32.227-6.27-36.68-18.955-2.45-7.009-9.587-10.723-16.631-9.532-.013-.002-.026.002-.038 0v39.307l.002-.002c14.55 16.525 37.638 24.304 60.964 18.215z" fill="#463f3f"/><g><path d="m263.507 196.034h-7.5-7.5c-23.851-.353-37.5 5.741-37.5 29.98 0 24.814 20.186 45 45 45s45-20.186 45-45c0-24.397-13.652-30.126-37.5-29.98z" fill="#5b5555"/><path d="m301.007 226.014c0-24.397-13.652-30.126-37.5-29.98h-7.5v74.98c24.815 0 45-20.185 45-45z" fill="#463f3f"/></g></g></g></svg>