<svg id="Capa_1" enable-background="new 0 0 512 512" height="512" viewBox="0 0 512 512" width="512" xmlns="http://www.w3.org/2000/svg"><g><path d="m358.75 78.031c1.181.682 2.471 1.006 3.743 1.006 2.592 0 5.113-1.345 6.502-3.751l17.75-30.743c2.071-3.587.842-8.174-2.745-10.245-3.587-2.07-8.174-.843-10.245 2.745l-17.75 30.743c-2.071 3.587-.842 8.174 2.745 10.245z"/><path d="m256 50.5c4.142 0 7.5-3.357 7.5-7.5v-35.5c0-4.143-3.358-7.5-7.5-7.5s-7.5 3.357-7.5 7.5v35.5c0 4.143 3.358 7.5 7.5 7.5z"/><path d="m143.005 75.286c1.389 2.406 3.91 3.751 6.502 3.751 1.273 0 2.562-.324 3.743-1.006 3.587-2.071 4.816-6.658 2.745-10.245l-17.75-30.743c-2.071-3.588-6.658-4.814-10.245-2.745-3.587 2.071-4.816 6.658-2.745 10.245z"/><path d="m160.016 357.928c1.906 15.451 14.528 27.904 30.013 29.61 16.887 1.853 32.761-9.101 36.923-25.497.135-.53.68-.916 1.296-.916h55.502c.616 0 1.162.386 1.296.917 3.854 15.181 17.746 25.702 33.188 25.701 1.236 0 2.483-.067 3.735-.205 15.485-1.706 28.107-14.159 30.013-29.609.957-7.757-.744-15.52-4.719-22.054 3.976-6.534 5.677-14.297 4.719-22.054v.001c-1.906-15.451-14.528-27.904-30.013-29.61-16.888-1.857-32.761 9.101-36.923 25.497-.135.53-.68.916-1.296.916h-55.502c-.616 0-1.162-.386-1.296-.917-4.163-16.396-20.032-27.355-36.923-25.496-15.485 1.706-28.107 14.159-30.013 29.609-.958 7.757.744 15.52 4.719 22.054-3.975 6.534-5.676 14.297-4.719 22.053zm19.607-27.056c-3.739-4.176-5.415-9.579-4.72-15.214 1.065-8.629 8.117-15.583 16.769-16.536 9.646-1.072 18.372 4.941 20.742 14.276 1.827 7.199 8.339 12.227 15.835 12.227h55.502c7.497 0 14.008-5.027 15.835-12.226 2.37-9.337 11.095-15.344 20.742-14.277 8.652.953 15.704 7.907 16.769 16.536v.001c.695 5.634-.981 11.037-4.72 15.213-2.55 2.848-2.55 7.158 0 10.006 3.739 4.176 5.415 9.579 4.72 15.214-1.065 8.629-8.117 15.583-16.769 16.536-9.646 1.066-18.372-4.942-20.742-14.276-1.827-7.199-8.339-12.227-15.835-12.227h-55.502c-7.497 0-14.008 5.027-15.835 12.226-2.37 9.336-11.095 15.35-20.742 14.277-8.652-.953-15.704-7.907-16.769-16.537-.695-5.634.981-11.037 4.72-15.213 2.55-2.848 2.55-7.158 0-10.006z"/><path d="m488.5 443.75h-12.651l-14.195-156.143c-1.911-21.024-18.393-37.166-39.038-38.939-3.092-17.92-17.306-32.082-35.257-35.081-3.442-30.255-29.199-53.838-60.359-53.838-16.399 0-31.997 6.608-43.401 18.262-3.3-.34-6.599-.512-9.849-.512-13.408 0-26.733 2.827-38.938 8.221-11.289-16.178-29.786-25.97-49.812-25.97-31.161 0-56.917 23.583-60.359 53.838-17.951 2.998-32.165 17.161-35.257 35.081-20.645 1.773-37.127 17.915-39.038 38.939l-14.195 156.142h-12.651c-12.958 0-23.5 10.542-23.5 23.5v21.25c0 12.958 10.542 23.5 23.5 23.5h383.906c4.142 0 7.5-3.357 7.5-7.5s-3.358-7.5-7.5-7.5h-383.906c-4.687 0-8.5-3.814-8.5-8.5v-21.25c0-4.686 3.813-8.5 8.5-8.5h465c4.687 0 8.5 3.814 8.5 8.5v21.25c0 4.686-3.813 8.5-8.5 8.5h-51.094c-4.142 0-7.5 3.357-7.5 7.5s3.358 7.5 7.5 7.5h51.094c12.958 0 23.5-10.542 23.5-23.5v-21.25c0-12.958-10.542-23.5-23.5-23.5zm-356.75-215.75c4.142 0 7.5-3.357 7.5-7.5 0-25.227 20.523-45.75 45.75-45.75 16.915 0 32.385 9.281 40.372 24.222 1.953 3.653 6.497 5.032 10.149 3.078 11.69-6.247 24.909-9.55 38.229-9.55 3.847 0 7.782.286 11.696.851 2.542.367 5.101-.595 6.772-2.55 8.719-10.2 21.397-16.051 34.782-16.051 25.227 0 45.75 20.523 45.75 45.75 0 4.143 3.358 7.5 7.5 7.5 12.841 0 23.684 8.692 26.972 20.5h-302.444c3.288-11.808 14.13-20.5 26.972-20.5zm-80.537 215.75 1.864-20.5h38.823c4.142 0 7.5-3.357 7.5-7.5s-3.358-7.5-7.5-7.5h-37.46l10.844-119.285c1.32-14.518 13.308-25.465 27.885-25.465h325.662c14.577 0 26.565 10.947 27.885 25.465l10.844 119.285h-335.66c-4.142 0-7.5 3.357-7.5 7.5s3.358 7.5 7.5 7.5h337.024l1.864 20.5z"/><path d="m300.375 228.03c4.142 0 7.5-3.357 7.5-7.5 0-5.652 4.598-10.25 10.25-10.25s10.25 4.598 10.25 10.25c0 4.143 3.358 7.5 7.5 7.5s7.5-3.357 7.5-7.5c0-13.923-11.327-25.25-25.25-25.25s-25.25 11.327-25.25 25.25c0 4.143 3.358 7.5 7.5 7.5z"/></g></svg>