<svg height="512" viewBox="0 0 58 53" width="512" xmlns="http://www.w3.org/2000/svg"><g id="Page-1" fill="none" fill-rule="evenodd"><g id="029---Pet-Health" fill-rule="nonzero"><path id="Shape" d="m58 19.12c.0010056.9822029-.0524096 1.9637071-.16 2.94-1.29 12.2-10.64 25.03-28.84 30.94-18.17-5.88-27.55-18.67-28.84-30.94-.10785927-.9762708-.16127528-1.9577899-.16-2.94 0-9.7 5.92-18.12 14.5-18.12 2.7943879-.00541702 5.5559502.60219495 8.09 1.78l14.38-.64c2.0932548-.75893418 4.3034166-1.14478172 6.53-1.14 8.58 0 14.5 8.42 14.5 18.12z" fill="#df4d60"/><path id="Shape" d="m58 19.12c.0010056.9822029-.0524096 1.9637071-.16 2.94-3.58 9.2-15.14 15.94-28.84 15.94s-25.26-6.74-28.84-15.94c-.10785927-.9762708-.16127528-1.9577899-.16-2.94 0-9.7 5.92-18.12 14.5-18.12 2.7943879-.00541702 5.5559502.60219495 8.09 1.78l14.38-.64c2.0932548-.75893418 4.3034166-1.14478172 6.53-1.14 8.58 0 14.5 8.42 14.5 18.12z" fill="#ff5364"/><path id="Shape" d="m51.25 38.06c-4.1914786 5.3361138-9.6079025 9.5828097-15.79 12.38-.6.29-1.21.57-1.83.82-1.47.64-3.02 1.22-4.63 1.74-.68-.22-1.35-.45-2-.69v-10.31c-2.5012804-2.7383529-3.9227528-6.2920339-4-10 .0546909-3.533196.9602686-7.0011469 2.64-10.11.1132228-.2455668.1193759-.527126.0169892-.7774047-.1023868-.2502786-.3041162-.4467949-.5569892-.5425953-2.9093031-1.0060442-5.9618469-1.5361873-9.04-1.57-4.79-1.6-5.12-6.39-5.05-8.25.0140251-.4427914.3202307-.82248621.75-.93l5.8-1.44c.9663414-.24517964 1.807304-.84026753 2.36-1.67l2.35-3.52c.0979211-.14327278.2048009-.28021249.32-.41.4964196-.57670703 1.1494761-.99702534 1.88-1.21 2.7870693-.87784446 5.6726007-1.40523494 8.59-1.57 1.5598602.08544852 2.997276.87216712 3.91 2.14 2.0823919 2.85938727 3.168022 6.32356617 3.09 9.86 0 2.56-1.1 4.03-2.61 4.72v.02l.29 2.01.22 1.54c.0543272.3961725.3427777.7201853.73.82 1.6804946.5724437 3.1854138 1.5676878 4.37 2.89 1.85 1.84 5.58 7.85 8.19 14.06z" fill="#35495e"/><path id="Shape" d="m37.74 18.75c-.7910545.3044724-1.6324036.4571365-2.48.45-1.0925587-.0072784-2.1742529-.2175136-3.19-.62-1.1376482-.4604811-1.8843157-1.5627046-1.89-2.79v-6.79c0-.55228473.4477153-.99999994 1-.99999994s1 .44771521 1 .99999994v6.79c-.0003967.4098038.249279.7783727.63.93 1.3988833.6023064 2.9776573.6345995 4.4.09.0765711-.0337927.1572682-.0573294.24-.07z" fill="#2c3e50"/><path id="Shape" d="m44.95 40.32c-.1805176.5213514-.7456812.8017081-1.27.63-1.8803297-.7346382-4.00316-.4833491-5.66.67-1.9515995 1.5352968-3.0697011 3.8973791-3.02 6.38-.015571.8362688.1410055 1.6668051.46 2.44-.6.29-1.21.57-1.83.82-.4284131-1.0328466-.6427394-2.1419-.63-3.26-.0461301-3.1237276 1.3800176-6.0871515 3.85-8 2.1816791-1.5273428 4.9754711-1.8826443 7.47-.95.5213514.1805176.8017081.7456812.63 1.27z" fill="#2c3e50"/><path id="Shape" d="m15 9.02v2.98c0 .5522847-.4477153 1-1 1h-2.85c-.1214433-.7434703-.1683427-1.4972096-.14-2.25.0140251-.4427914.3202307-.82248621.75-.93z" fill="#3f5c6c"/></g></g></svg>